<svg id="svg" version="1.1" xmlns="http://www.w3.org/2000/svg" xmlns:xlink="http://www.w3.org/1999/xlink" width="400" height="400" viewBox="0, 0, 400,400"><g id="svgg"><path id="path0" d="M272.200 3.958 C 270.014 4.970,269.117 6.053,264.625 13.100 C 262.486 16.455,260.526 19.217,260.268 19.237 C 260.011 19.257,259.260 19.302,258.600 19.337 C 256.659 19.439,255.886 22.148,257.154 24.405 L 258.074 26.040 257.071 26.969 C 254.284 29.552,252.261 37.540,251.943 47.217 C 251.843 50.249,253.419 55.238,255.099 57.204 L 256.398 58.725 261.236 58.598 C 264.758 58.506,266.445 58.627,267.437 59.041 L 268.800 59.611 268.800 62.410 C 268.800 70.160,270.530 75.721,273.006 75.928 C 274.092 76.019,275.197 76.573,276.795 77.828 C 278.596 79.243,279.367 79.600,280.628 79.600 C 281.495 79.600,282.744 79.751,283.403 79.937 C 288.228 81.293,288.174 76.557,283.336 74.123 C 279.554 72.221,279.185 71.907,278.021 69.600 C 276.594 66.771,276.079 62.004,277.010 60.231 C 277.714 58.891,277.518 58.654,275.162 58.001 C 271.934 57.106,270.014 55.101,267.521 50.020 L 266.256 47.440 268.001 44.108 C 270.617 39.115,271.573 39.003,275.000 43.289 C 276.176 44.759,277.395 45.686,279.600 46.786 L 282.600 48.283 284.200 47.552 C 287.365 46.106,294.654 46.700,295.503 48.473 C 296.109 49.736,299.856 53.200,300.617 53.200 C 301.734 53.200,303.413 52.306,304.976 50.878 C 305.869 50.062,307.354 49.058,308.276 48.647 C 310.583 47.619,310.580 47.646,309.190 40.685 C 308.800 38.732,309.028 37.332,311.980 23.600 C 313.342 17.262,312.221 14.286,307.682 12.188 C 291.711 4.806,277.492 1.508,272.200 3.958 M198.087 42.018 C 195.255 42.526,193.286 43.587,189.903 46.427 C 185.286 50.304,179.471 53.317,174.474 54.423 C 172.885 54.775,166.195 57.843,162.800 59.778 C 162.057 60.201,158.874 60.459,150.400 60.784 C 138.700 61.232,133.748 61.662,129.200 62.625 C 127.770 62.927,123.810 63.720,120.400 64.386 C 116.990 65.052,112.130 66.027,109.600 66.551 C 107.070 67.076,103.110 67.891,100.800 68.363 C 98.490 68.834,95.520 69.473,94.200 69.782 C 92.880 70.091,90.090 70.738,88.000 71.219 C 75.925 74.000,67.779 76.370,63.632 78.309 C 61.558 79.278,61.393 79.296,59.822 78.714 C 57.866 77.988,57.212 78.296,50.493 83.106 C 45.513 86.671,44.934 88.982,47.902 93.449 C 48.299 94.046,58.669 96.128,59.301 95.738 C 59.906 95.364,59.056 93.370,57.786 92.185 C 56.448 90.936,55.346 88.094,55.960 87.480 C 56.152 87.288,58.116 87.678,60.406 88.363 L 64.508 89.590 66.054 88.722 C 68.431 87.386,67.911 86.800,64.348 86.800 C 60.873 86.800,59.342 83.941,61.192 80.906 C 61.886 79.768,62.100 79.658,62.977 79.991 C 67.122 81.567,70.378 84.075,71.626 86.654 C 72.508 88.475,72.569 89.196,72.276 94.349 C 72.213 95.465,72.454 95.905,73.675 96.898 L 75.149 98.099 81.475 96.631 C 84.954 95.823,88.520 94.991,89.400 94.781 C 96.979 92.974,110.973 90.634,125.200 88.795 C 131.202 88.019,141.581 87.236,149.438 86.965 L 157.476 86.688 158.138 87.633 C 159.147 89.073,158.943 89.784,157.300 90.563 C 150.091 93.983,134.887 107.731,125.000 119.770 C 124.120 120.842,123.210 121.917,122.978 122.159 C 117.691 127.687,91.200 167.417,91.200 169.819 C 91.200 169.927,90.718 170.777,90.128 171.708 C 88.182 174.779,88.990 178.397,92.114 180.612 C 92.601 180.957,94.948 182.596,97.330 184.253 C 101.082 186.865,101.904 187.649,103.494 190.134 C 119.056 214.450,138.221 241.878,145.187 249.800 C 146.541 251.340,148.843 254.400,150.303 256.600 C 151.764 258.800,153.846 261.542,154.930 262.692 L 156.901 264.785 154.351 267.062 C 146.168 274.368,134.920 286.403,129.487 293.666 C 127.492 296.333,114.272 309.681,95.400 328.083 C 86.505 336.757,85.362 337.790,83.670 338.686 C 82.629 339.237,81.911 340.212,80.528 342.955 L 78.736 346.511 80.868 348.696 C 101.295 369.637,133.492 387.986,149.834 387.999 L 151.467 388.000 151.955 382.429 L 152.443 376.859 151.436 374.871 C 150.379 372.785,146.788 368.910,143.400 366.200 C 142.300 365.320,141.310 364.509,141.200 364.398 C 141.090 364.286,140.280 363.666,139.400 363.019 C 137.444 361.581,137.217 361.269,137.195 360.000 C 137.186 359.450,136.643 358.293,135.989 357.429 C 134.776 355.826,134.486 354.641,135.198 354.201 C 136.582 353.346,136.410 352.422,134.708 351.566 C 126.303 347.345,127.726 343.571,140.200 337.007 C 142.620 335.733,144.780 334.562,145.000 334.405 C 145.220 334.248,147.020 333.253,149.000 332.194 C 154.069 329.483,155.664 328.587,160.137 325.935 C 162.303 324.651,164.122 323.600,164.181 323.600 C 164.240 323.600,164.420 329.045,164.582 335.700 C 164.872 347.654,164.934 348.202,166.429 351.856 C 166.926 353.072,166.878 353.190,164.912 355.542 L 162.882 357.972 162.634 362.886 C 162.025 374.950,161.417 392.502,161.600 392.776 C 161.813 393.096,162.707 393.266,169.000 394.180 C 187.689 396.894,221.845 397.096,233.931 394.564 C 234.856 394.370,234.861 394.341,234.731 389.085 C 234.547 381.675,233.215 380.023,226.104 378.390 C 220.347 377.067,215.604 374.868,210.200 371.017 C 208.880 370.076,206.270 368.541,204.400 367.607 C 202.530 366.672,200.947 365.860,200.883 365.803 C 200.818 365.746,201.688 361.942,202.815 357.349 C 207.932 336.498,213.123 312.945,215.807 298.400 C 216.558 294.330,217.634 289.422,218.198 287.493 C 223.919 267.924,221.416 248.474,211.528 235.662 C 210.059 233.758,204.846 225.810,199.943 218.000 C 195.041 210.190,189.829 202.090,188.362 200.000 C 185.696 196.201,185.695 196.198,184.381 190.200 C 183.659 186.900,182.641 183.252,182.119 182.093 C 179.428 176.117,180.301 172.481,185.000 170.100 C 193.615 165.736,206.029 154.001,206.611 149.670 C 206.750 148.642,206.905 147.632,206.956 147.427 C 207.007 147.222,208.388 147.041,210.024 147.026 C 212.298 147.005,213.404 146.787,214.712 146.099 C 217.096 144.848,217.051 144.804,217.335 148.700 C 217.921 156.765,222.535 170.701,225.753 174.125 C 225.999 174.386,226.722 175.320,227.360 176.200 C 227.999 177.080,229.979 179.281,231.760 181.091 C 233.542 182.901,236.006 185.450,237.236 186.756 C 242.840 192.708,246.366 191.461,253.341 181.058 C 257.998 174.112,258.234 172.736,254.314 175.400 C 252.444 176.671,252.098 176.647,250.432 175.133 C 249.284 174.090,249.157 173.817,249.646 173.445 C 254.639 169.636,262.411 163.032,262.298 162.693 C 261.981 161.742,261.188 162.067,257.679 164.586 C 253.333 167.707,253.600 167.662,253.600 165.270 C 253.600 163.377,253.651 163.299,256.200 161.230 C 258.995 158.962,259.119 158.762,258.193 157.995 C 257.694 157.580,257.020 157.747,254.360 158.946 C 250.316 160.768,250.398 160.774,248.663 158.547 L 247.220 156.694 248.669 154.047 C 249.466 152.591,250.640 150.464,251.277 149.320 C 252.251 147.572,252.522 146.423,252.974 142.120 C 253.608 136.091,254.428 134.176,257.596 131.327 C 267.567 122.363,269.165 108.228,261.533 96.500 C 260.638 95.125,259.754 94.000,259.568 94.000 C 259.157 94.000,256.185 95.164,253.200 96.495 C 251.990 97.034,249.650 98.057,248.000 98.767 C 245.287 99.935,244.996 100.169,244.958 101.214 C 244.828 104.807,234.182 117.186,224.293 125.240 C 215.204 132.644,214.205 130.765,222.547 121.957 C 235.891 107.867,244.528 91.470,246.963 75.600 C 247.861 69.754,248.348 66.961,249.469 61.242 C 250.671 55.113,250.701 55.208,247.734 55.689 C 239.423 57.036,235.325 55.943,226.400 49.994 C 215.895 42.993,206.856 40.447,198.087 42.018 M300.108 64.725 C 299.324 65.223,301.396 68.000,302.550 68.000 C 303.377 68.000,304.400 66.698,304.400 65.645 C 304.400 64.773,301.135 64.073,300.108 64.725 M294.987 72.822 C 293.579 75.099,297.684 76.124,299.333 73.907 C 300.353 72.535,300.140 72.316,298.283 72.828 C 297.274 73.107,296.566 73.103,296.030 72.816 C 295.484 72.524,295.170 72.526,294.987 72.822 M257.200 81.053 C 256.650 81.143,255.615 81.310,254.900 81.426 C 252.209 81.861,253.277 85.572,256.800 88.032 L 259.000 89.568 262.200 88.757 C 267.231 87.484,269.800 86.078,269.800 84.600 L 269.800 83.400 265.929 83.545 L 262.057 83.691 261.929 82.345 C 261.794 80.933,260.359 80.541,257.200 81.053 M18.800 244.200 L 18.800 256.800 9.400 256.800 L 0.000 256.800 0.000 269.593 L 0.000 282.385 9.300 282.493 L 18.600 282.600 18.706 295.100 L 18.811 307.600 31.400 307.600 L 43.988 307.600 44.094 295.300 L 44.200 283.000 57.100 282.894 L 70.000 282.789 70.000 295.394 L 70.000 308.000 82.794 308.000 L 95.589 308.000 95.694 295.500 L 95.800 283.000 108.400 283.000 L 121.000 283.000 121.200 291.712 L 121.400 300.423 124.033 297.712 C 125.481 296.220,127.641 293.650,128.832 292.000 C 130.024 290.350,132.124 287.703,133.500 286.117 C 134.875 284.531,136.000 283.136,136.000 283.017 C 136.000 282.898,132.670 282.800,128.600 282.800 L 121.200 282.800 121.200 270.200 L 121.200 257.600 133.800 257.600 L 146.400 257.600 146.400 264.600 C 146.400 272.637,146.287 272.479,149.707 269.233 C 151.078 267.931,152.695 266.478,153.300 266.004 C 154.710 264.899,154.685 264.605,153.045 262.965 C 152.299 262.219,151.111 260.707,150.403 259.605 C 149.635 258.408,148.824 257.600,148.391 257.600 C 146.786 257.600,146.400 257.158,146.400 255.320 C 146.400 253.701,146.182 253.286,144.158 251.063 C 142.924 249.708,139.122 244.865,135.709 240.300 L 129.502 232.000 125.351 232.000 L 121.200 232.000 121.200 244.320 C 121.200 253.369,121.073 256.767,120.720 257.120 C 119.901 257.939,96.160 257.794,95.843 256.967 C 95.709 256.619,95.600 250.857,95.600 244.162 L 95.600 231.989 82.900 232.094 L 70.200 232.200 70.094 244.500 L 69.988 256.800 56.994 256.800 L 44.000 256.800 44.000 244.200 L 44.000 231.600 31.400 231.600 L 18.800 231.600 18.800 244.200 M223.012 232.494 C 222.920 232.772,222.790 239.390,222.723 247.200 C 222.655 255.010,222.690 260.590,222.800 259.600 L 223.000 257.800 235.706 257.694 L 248.411 257.589 248.306 270.094 L 248.200 282.600 235.700 282.706 C 228.825 282.764,223.192 282.674,223.182 282.506 C 223.173 282.338,223.090 280.062,222.998 277.449 C 222.841 272.983,222.409 270.405,222.392 273.833 C 222.388 274.695,222.124 276.840,221.806 278.600 C 221.057 282.748,221.059 282.800,222.000 282.800 C 222.783 282.800,222.800 283.067,222.800 295.400 L 222.800 308.000 235.594 308.000 L 248.389 308.000 248.494 295.500 L 248.600 283.000 261.100 282.894 L 273.600 282.789 273.600 295.394 L 273.600 308.000 286.394 308.000 L 299.189 308.000 299.294 295.500 L 299.400 283.000 312.100 282.894 L 324.800 282.789 324.800 295.400 L 324.800 308.011 337.500 307.906 L 350.200 307.800 350.306 295.294 L 350.411 282.789 362.906 282.894 L 375.400 283.000 375.506 295.500 L 375.611 308.000 387.806 308.000 L 400.000 308.000 400.000 295.406 L 400.000 282.812 387.900 282.706 L 375.800 282.600 375.694 270.100 L 375.589 257.600 387.794 257.600 L 400.000 257.600 400.000 244.800 L 400.000 232.000 387.806 232.000 L 375.611 232.000 375.506 244.700 L 375.400 257.400 363.000 257.400 L 350.600 257.400 350.400 244.800 L 350.200 232.200 337.500 232.094 L 324.800 231.989 324.800 244.548 L 324.800 257.107 323.900 257.348 C 321.619 257.959,299.692 257.618,299.443 256.967 C 299.309 256.619,299.200 250.859,299.200 244.167 L 299.200 232.000 286.406 232.000 L 273.611 232.000 273.506 244.700 L 273.400 257.400 261.800 257.512 C 255.420 257.574,249.798 257.526,249.306 257.406 L 248.411 257.188 248.306 244.694 L 248.200 232.200 235.690 232.094 C 225.886 232.011,223.143 232.098,223.012 232.494 M43.800 269.600 L 43.800 282.200 31.400 282.200 L 19.000 282.200 18.894 270.004 C 18.836 263.296,18.876 257.579,18.984 257.298 C 19.138 256.897,21.805 256.811,31.490 256.894 L 43.800 257.000 43.800 269.600 M95.600 270.200 L 95.600 282.800 83.043 282.800 C 71.961 282.800,70.457 282.726,70.243 282.167 C 69.926 281.342,69.926 259.058,70.243 258.233 C 70.457 257.674,71.961 257.600,83.043 257.600 L 95.600 257.600 95.600 270.200 M299.106 270.100 L 299.000 282.600 286.848 282.706 C 278.215 282.781,274.538 282.680,274.148 282.357 C 273.565 281.873,273.296 258.437,273.867 257.867 C 274.013 257.720,279.776 257.600,286.672 257.600 L 299.211 257.600 299.106 270.100 M349.906 270.100 L 349.800 282.600 337.300 282.706 L 324.800 282.811 324.800 270.206 L 324.800 257.600 337.406 257.600 L 350.011 257.600 349.906 270.100 " stroke="none" fill="#241d23" fill-rule="evenodd"></path><path id="path1" d="M0.000 128.400 L 0.000 256.800 9.400 256.800 L 18.800 256.800 18.800 244.200 L 18.800 231.600 31.400 231.600 L 44.000 231.600 44.000 244.200 L 44.000 256.800 56.994 256.800 L 69.988 256.800 70.094 244.500 L 70.200 232.200 82.900 232.094 L 95.600 231.989 95.600 244.162 C 95.600 250.857,95.709 256.619,95.843 256.967 C 96.160 257.794,119.901 257.939,120.720 257.120 C 121.073 256.767,121.200 253.369,121.200 244.320 L 121.200 232.000 125.351 232.000 L 129.502 232.000 135.709 240.300 C 139.122 244.865,142.924 249.708,144.158 251.063 C 146.182 253.286,146.400 253.701,146.400 255.320 C 146.400 257.158,146.786 257.600,148.391 257.600 C 148.824 257.600,149.635 258.408,150.403 259.605 C 151.111 260.707,152.299 262.219,153.045 262.965 C 154.685 264.605,154.710 264.899,153.300 266.004 C 152.695 266.478,151.078 267.931,149.707 269.233 C 146.287 272.479,146.400 272.637,146.400 264.600 L 146.400 257.600 133.800 257.600 L 121.200 257.600 121.200 270.200 L 121.200 282.800 128.600 282.800 C 132.670 282.800,136.000 282.898,136.000 283.017 C 136.000 283.136,134.875 284.531,133.500 286.117 C 132.124 287.703,130.024 290.350,128.832 292.000 C 127.641 293.650,125.481 296.220,124.033 297.712 L 121.400 300.423 121.200 291.712 L 121.000 283.000 108.400 283.000 L 95.800 283.000 95.694 295.500 L 95.589 308.000 82.794 308.000 L 70.000 308.000 70.000 295.394 L 70.000 282.789 57.100 282.894 L 44.200 283.000 44.094 295.300 L 43.988 307.600 31.400 307.600 L 18.811 307.600 18.706 295.100 L 18.600 282.600 9.300 282.493 L 0.000 282.385 0.000 341.193 L 0.000 400.000 200.000 400.000 L 400.000 400.000 400.000 354.000 L 400.000 308.000 387.806 308.000 L 375.611 308.000 375.506 295.500 L 375.400 283.000 362.906 282.894 L 350.411 282.789 350.306 295.294 L 350.200 307.800 337.500 307.906 L 324.800 308.011 324.800 295.411 L 324.800 282.811 337.300 282.706 L 349.800 282.600 349.906 270.100 L 350.011 257.600 337.406 257.600 L 324.800 257.600 324.800 270.194 L 324.800 282.789 312.100 282.894 L 299.400 283.000 299.294 295.500 L 299.189 308.000 286.394 308.000 L 273.600 308.000 273.600 295.394 L 273.600 282.789 261.100 282.894 L 248.600 283.000 248.494 295.500 L 248.389 308.000 235.594 308.000 L 222.800 308.000 222.800 295.400 C 222.800 283.067,222.783 282.800,222.000 282.800 C 221.059 282.800,221.057 282.748,221.806 278.600 C 222.124 276.840,222.388 274.695,222.392 273.833 C 222.409 270.405,222.841 272.983,222.998 277.449 C 223.090 280.062,223.173 282.338,223.182 282.506 C 223.192 282.674,228.825 282.764,235.700 282.706 L 248.200 282.600 248.306 270.094 L 248.411 257.589 235.706 257.694 L 223.000 257.800 222.800 259.600 C 222.690 260.590,222.655 255.010,222.723 247.200 C 222.790 239.390,222.920 232.772,223.012 232.494 C 223.143 232.098,225.886 232.011,235.690 232.094 L 248.200 232.200 248.306 244.694 L 248.411 257.188 249.306 257.406 C 249.798 257.526,255.420 257.574,261.800 257.512 L 273.400 257.400 273.506 244.700 L 273.611 232.000 286.406 232.000 L 299.200 232.000 299.200 244.167 C 299.200 250.859,299.309 256.619,299.443 256.967 C 299.692 257.618,321.619 257.959,323.900 257.348 L 324.800 257.107 324.800 244.548 L 324.800 231.989 337.500 232.094 L 350.200 232.200 350.400 244.800 L 350.600 257.400 363.000 257.400 L 375.400 257.400 375.506 244.700 L 375.611 232.000 387.806 232.000 L 400.000 232.000 400.000 116.000 L 400.000 0.000 200.000 0.000 L 0.000 0.000 0.000 128.400 M286.000 4.367 C 292.927 6.121,300.348 8.798,307.682 12.188 C 312.221 14.286,313.342 17.262,311.980 23.600 C 309.028 37.332,308.800 38.732,309.190 40.685 C 310.580 47.646,310.583 47.619,308.276 48.647 C 307.354 49.058,305.869 50.062,304.976 50.878 C 303.413 52.306,301.734 53.200,300.617 53.200 C 299.856 53.200,296.109 49.736,295.503 48.473 C 294.654 46.700,287.365 46.106,284.200 47.552 L 282.600 48.283 279.600 46.786 C 277.395 45.686,276.176 44.759,275.000 43.289 C 271.573 39.003,270.617 39.115,268.001 44.108 L 266.256 47.440 267.521 50.020 C 270.014 55.101,271.934 57.106,275.162 58.001 C 277.518 58.654,277.714 58.891,277.010 60.231 C 276.079 62.004,276.594 66.771,278.021 69.600 C 279.185 71.907,279.554 72.221,283.336 74.123 C 288.174 76.557,288.228 81.293,283.403 79.937 C 282.744 79.751,281.495 79.600,280.628 79.600 C 279.367 79.600,278.596 79.243,276.795 77.828 C 275.197 76.573,274.092 76.019,273.006 75.928 C 270.530 75.721,268.800 70.160,268.800 62.410 L 268.800 59.611 267.437 59.041 C 266.445 58.627,264.758 58.506,261.236 58.598 L 256.398 58.725 255.099 57.204 C 253.419 55.238,251.843 50.249,251.943 47.217 C 252.261 37.540,254.284 29.552,257.071 26.969 L 258.074 26.040 257.154 24.405 C 255.886 22.148,256.659 19.439,258.600 19.337 C 259.260 19.302,260.011 19.257,260.268 19.237 C 260.526 19.217,262.486 16.455,264.625 13.100 C 271.461 2.376,274.015 1.332,286.000 4.367 M210.765 42.620 C 216.876 44.028,218.835 44.952,226.400 49.994 C 235.325 55.943,239.423 57.036,247.734 55.689 C 250.701 55.208,250.671 55.113,249.469 61.242 C 248.348 66.961,247.861 69.754,246.963 75.600 C 244.528 91.470,235.891 107.867,222.547 121.957 C 214.205 130.765,215.204 132.644,224.293 125.240 C 234.182 117.186,244.828 104.807,244.958 101.214 C 244.996 100.169,245.287 99.935,248.000 98.767 C 249.650 98.057,251.990 97.034,253.200 96.495 C 256.185 95.164,259.157 94.000,259.568 94.000 C 259.754 94.000,260.638 95.125,261.533 96.500 C 269.165 108.228,267.567 122.363,257.596 131.327 C 254.428 134.176,253.608 136.091,252.974 142.120 C 252.522 146.423,252.251 147.572,251.277 149.320 C 250.640 150.464,249.466 152.591,248.669 154.047 L 247.220 156.694 248.663 158.547 C 250.398 160.774,250.316 160.768,254.360 158.946 C 257.020 157.747,257.694 157.580,258.193 157.995 C 259.119 158.762,258.995 158.962,256.200 161.230 C 253.651 163.299,253.600 163.377,253.600 165.270 C 253.600 167.662,253.333 167.707,257.679 164.586 C 261.188 162.067,261.981 161.742,262.298 162.693 C 262.411 163.032,254.639 169.636,249.646 173.445 C 249.157 173.817,249.284 174.090,250.432 175.133 C 252.098 176.647,252.444 176.671,254.314 175.400 C 258.234 172.736,257.998 174.112,253.341 181.058 C 246.366 191.461,242.840 192.708,237.236 186.756 C 236.006 185.450,233.542 182.901,231.760 181.091 C 229.979 179.281,227.999 177.080,227.360 176.200 C 226.722 175.320,225.999 174.386,225.753 174.125 C 222.535 170.701,217.921 156.765,217.335 148.700 C 217.051 144.804,217.096 144.848,214.712 146.099 C 213.404 146.787,212.298 147.005,210.024 147.026 C 208.388 147.041,207.007 147.222,206.956 147.427 C 206.905 147.632,206.750 148.642,206.611 149.670 C 206.029 154.001,193.615 165.736,185.000 170.100 C 180.301 172.481,179.428 176.117,182.119 182.093 C 182.641 183.252,183.659 186.900,184.381 190.200 C 185.695 196.198,185.696 196.201,188.362 200.000 C 189.829 202.090,195.041 210.190,199.943 218.000 C 204.846 225.810,210.059 233.758,211.528 235.662 C 221.416 248.474,223.919 267.924,218.198 287.493 C 217.634 289.422,216.558 294.330,215.807 298.400 C 213.123 312.945,207.932 336.498,202.815 357.349 C 201.688 361.942,200.818 365.746,200.883 365.803 C 200.947 365.860,202.530 366.672,204.400 367.607 C 206.270 368.541,208.880 370.076,210.200 371.017 C 215.604 374.868,220.347 377.067,226.104 378.390 C 233.215 380.023,234.547 381.675,234.731 389.085 C 234.861 394.341,234.856 394.370,233.931 394.564 C 221.845 397.096,187.689 396.894,169.000 394.180 C 162.707 393.266,161.813 393.096,161.600 392.776 C 161.417 392.502,162.025 374.950,162.634 362.886 L 162.882 357.972 164.912 355.542 C 166.878 353.190,166.926 353.072,166.429 351.856 C 164.934 348.202,164.872 347.654,164.582 335.700 C 164.420 329.045,164.240 323.600,164.181 323.600 C 164.122 323.600,162.303 324.651,160.137 325.935 C 155.664 328.587,154.069 329.483,149.000 332.194 C 147.020 333.253,145.220 334.248,145.000 334.405 C 144.780 334.562,142.620 335.733,140.200 337.007 C 127.726 343.571,126.303 347.345,134.708 351.566 C 136.410 352.422,136.582 353.346,135.198 354.201 C 134.486 354.641,134.776 355.826,135.989 357.429 C 136.643 358.293,137.186 359.450,137.195 360.000 C 137.217 361.269,137.444 361.581,139.400 363.019 C 140.280 363.666,141.090 364.286,141.200 364.398 C 141.310 364.509,142.300 365.320,143.400 366.200 C 146.788 368.910,150.379 372.785,151.436 374.871 L 152.443 376.859 151.955 382.429 L 151.467 388.000 149.834 387.999 C 133.492 387.986,101.295 369.637,80.868 348.696 L 78.736 346.511 80.528 342.955 C 81.911 340.212,82.629 339.237,83.670 338.686 C 85.362 337.790,86.505 336.757,95.400 328.083 C 114.272 309.681,127.492 296.333,129.487 293.666 C 134.920 286.403,146.168 274.368,154.351 267.062 L 156.901 264.785 154.930 262.692 C 153.846 261.542,151.764 258.800,150.303 256.600 C 148.843 254.400,146.541 251.340,145.187 249.800 C 138.221 241.878,119.056 214.450,103.494 190.134 C 101.904 187.649,101.082 186.865,97.330 184.253 C 94.948 182.596,92.601 180.957,92.114 180.612 C 88.990 178.397,88.182 174.779,90.128 171.708 C 90.718 170.777,91.200 169.927,91.200 169.819 C 91.200 167.417,117.691 127.687,122.978 122.159 C 123.210 121.917,124.120 120.842,125.000 119.770 C 134.887 107.731,150.091 93.983,157.300 90.563 C 158.943 89.784,159.147 89.073,158.138 87.633 L 157.476 86.688 149.438 86.965 C 141.581 87.236,131.202 88.019,125.200 88.795 C 110.973 90.634,96.979 92.974,89.400 94.781 C 88.520 94.991,84.954 95.823,81.475 96.631 L 75.149 98.099 73.675 96.898 C 72.454 95.905,72.213 95.465,72.276 94.349 C 72.569 89.196,72.508 88.475,71.626 86.654 C 70.378 84.075,67.122 81.567,62.977 79.991 C 62.100 79.658,61.886 79.768,61.192 80.906 C 59.342 83.941,60.873 86.800,64.348 86.800 C 67.911 86.800,68.431 87.386,66.054 88.722 L 64.508 89.590 60.406 88.363 C 58.116 87.678,56.152 87.288,55.960 87.480 C 55.346 88.094,56.448 90.936,57.786 92.185 C 59.056 93.370,59.906 95.364,59.301 95.738 C 58.669 96.128,48.299 94.046,47.902 93.449 C 44.934 88.982,45.513 86.671,50.493 83.106 C 57.212 78.296,57.866 77.988,59.822 78.714 C 61.393 79.296,61.558 79.278,63.632 78.309 C 67.779 76.370,75.925 74.000,88.000 71.219 C 90.090 70.738,92.880 70.091,94.200 69.782 C 95.520 69.473,98.490 68.834,100.800 68.363 C 103.110 67.891,107.070 67.076,109.600 66.551 C 112.130 66.027,116.990 65.052,120.400 64.386 C 123.810 63.720,127.770 62.927,129.200 62.625 C 133.748 61.662,138.700 61.232,150.400 60.784 C 158.874 60.459,162.057 60.201,162.800 59.778 C 166.195 57.843,172.885 54.775,174.474 54.423 C 179.471 53.317,185.286 50.304,189.903 46.427 C 195.603 41.641,201.694 40.529,210.765 42.620 M303.381 64.864 C 304.536 65.391,304.582 65.563,303.936 66.981 C 303.238 68.513,301.846 68.319,300.622 66.519 C 299.269 64.527,300.725 63.654,303.381 64.864 M298.283 72.828 C 300.140 72.316,300.353 72.535,299.333 73.907 C 298.155 75.491,295.343 75.709,294.976 74.245 C 294.627 72.856,295.046 72.289,296.030 72.816 C 296.566 73.103,297.274 73.107,298.283 72.828 M261.929 82.345 L 262.057 83.691 265.929 83.545 L 269.800 83.400 269.800 84.600 C 269.800 86.078,267.231 87.484,262.200 88.757 L 259.000 89.568 256.800 88.032 C 253.277 85.572,252.209 81.861,254.900 81.426 C 255.615 81.310,256.650 81.143,257.200 81.053 C 260.359 80.541,261.794 80.933,261.929 82.345 M18.984 257.298 C 18.876 257.579,18.836 263.296,18.894 270.004 L 19.000 282.200 31.400 282.200 L 43.800 282.200 43.800 269.600 L 43.800 257.000 31.490 256.894 C 21.805 256.811,19.138 256.897,18.984 257.298 M70.243 258.233 C 69.926 259.058,69.926 281.342,70.243 282.167 C 70.457 282.726,71.961 282.800,83.043 282.800 L 95.600 282.800 95.600 270.200 L 95.600 257.600 83.043 257.600 C 71.961 257.600,70.457 257.674,70.243 258.233 M273.867 257.867 C 273.296 258.437,273.565 281.873,274.148 282.357 C 274.538 282.680,278.215 282.781,286.848 282.706 L 299.000 282.600 299.106 270.100 L 299.211 257.600 286.672 257.600 C 279.776 257.600,274.013 257.720,273.867 257.867 M375.694 270.100 L 375.800 282.600 387.900 282.706 L 400.000 282.812 400.000 270.206 L 400.000 257.600 387.794 257.600 L 375.589 257.600 375.694 270.100 " stroke="none" fill="#fbfbfb" fill-rule="evenodd"></path></g></svg>